<svg width="14" height="14" viewBox="0 0 14 14" fill="none" xmlns="http://www.w3.org/2000/svg">
<g id="vuesax/bold/arrow-3">
<g id="arrow-3">
<path id="Vector" d="M3.92195 1.76555L3.92584 1.76167L3.92195 1.76555ZM1.70562 3.87561C1.70565 3.87559 1.70567 3.87556 1.7057 3.87553L1.70562 3.87561Z" fill="#292D32" stroke="#065F46"/>
<g id="Vector_2">
<mask id="path-2-inside-1_553_5057" fill="white">
<path d="M12.5592 9.77083C12.39 9.60167 12.11 9.60167 11.9408 9.77083L10.5117 11.2V1.75C10.5117 1.51083 10.3133 1.3125 10.0742 1.3125C9.83501 1.3125 9.63668 1.51083 9.63668 1.75V11.1942L8.21335 9.77083C8.04418 9.60167 7.76418 9.60167 7.59501 9.77083C7.42585 9.94 7.42585 10.22 7.59501 10.3892L9.75918 12.5533C9.80001 12.5942 9.85251 12.6292 9.91085 12.6525C9.91668 12.6525 9.92251 12.6525 9.92835 12.6583C9.97501 12.6758 10.0275 12.6875 10.08 12.6875C10.1967 12.6875 10.3075 12.6408 10.3892 12.5592L12.5592 10.3892C12.7283 10.2142 12.7283 9.94 12.5592 9.77083Z"/>
</mask>
<path d="M12.5592 9.77083C12.39 9.60167 12.11 9.60167 11.9408 9.77083L10.5117 11.2V1.75C10.5117 1.51083 10.3133 1.3125 10.0742 1.3125C9.83501 1.3125 9.63668 1.51083 9.63668 1.75V11.1942L8.21335 9.77083C8.04418 9.60167 7.76418 9.60167 7.59501 9.77083C7.42585 9.94 7.42585 10.22 7.59501 10.3892L9.75918 12.5533C9.80001 12.5942 9.85251 12.6292 9.91085 12.6525C9.91668 12.6525 9.92251 12.6525 9.92835 12.6583C9.97501 12.6758 10.0275 12.6875 10.08 12.6875C10.1967 12.6875 10.3075 12.6408 10.3892 12.5592L12.5592 10.3892C12.7283 10.2142 12.7283 9.94 12.5592 9.77083Z" fill="#292D32"/>
<path d="M11.9408 9.77083L11.2337 9.06373H11.2337L11.9408 9.77083ZM10.5117 11.2H9.51168V13.6142L11.2188 11.9071L10.5117 11.2ZM9.63668 11.1942L8.92957 11.9013L10.6367 13.6084V11.1942H9.63668ZM7.59501 10.3892L8.30212 9.68206H8.30212L7.59501 10.3892ZM9.75918 12.5533L9.05207 13.2604H9.05207L9.75918 12.5533ZM9.91085 12.6525L9.53946 13.581L9.71827 13.6525H9.91085V12.6525ZM9.92835 12.6583L9.22124 13.3654L9.37441 13.5186L9.57722 13.5947L9.92835 12.6583ZM10.3892 12.5592L11.0963 13.2663H11.0963L10.3892 12.5592ZM12.5592 10.3892L13.2663 11.0963L13.2723 11.0903L13.2782 11.0842L12.5592 10.3892ZM13.2663 9.06373C12.7066 8.50404 11.7934 8.50404 11.2337 9.06373L12.648 10.4779C12.4266 10.6993 12.0734 10.6993 11.8521 10.4779L13.2663 9.06373ZM11.2337 9.06373L9.80457 10.4929L11.2188 11.9071L12.648 10.4779L11.2337 9.06373ZM11.5117 11.2V1.75H9.51168V11.2H11.5117ZM11.5117 1.75C11.5117 0.958548 10.8656 0.3125 10.0742 0.3125V2.3125C9.76106 2.3125 9.51168 2.06312 9.51168 1.75H11.5117ZM10.0742 0.3125C9.28273 0.3125 8.63668 0.958548 8.63668 1.75H10.6367C10.6367 2.06312 10.3873 2.3125 10.0742 2.3125V0.3125ZM8.63668 1.75V11.1942H10.6367V1.75H8.63668ZM10.3438 10.4871L8.92045 9.06373L7.50624 10.4779L8.92957 11.9013L10.3438 10.4871ZM8.92045 9.06373C8.36076 8.50404 7.4476 8.50404 6.88791 9.06373L8.30212 10.4779C8.08076 10.6993 7.7276 10.6993 7.50624 10.4779L8.92045 9.06373ZM6.88791 9.06373C6.32822 9.62342 6.32822 10.5366 6.88791 11.0963L8.30212 9.68206C8.52348 9.90342 8.52348 10.2566 8.30212 10.4779L6.88791 9.06373ZM6.88791 11.0963L9.05207 13.2604L10.4663 11.8462L8.30212 9.68206L6.88791 11.0963ZM9.05207 13.2604C9.19018 13.3985 9.35738 13.5081 9.53946 13.581L10.2822 11.724C10.3477 11.7502 10.4099 11.7898 10.4663 11.8462L9.05207 13.2604ZM9.91085 13.6525C9.93232 13.6525 9.81261 13.6573 9.67706 13.6234C9.50793 13.5811 9.34921 13.4934 9.22124 13.3654L10.6355 11.9512C10.3187 11.6345 9.93154 11.6525 9.91085 11.6525V13.6525ZM9.57722 13.5947C9.71219 13.6453 9.88442 13.6875 10.08 13.6875V11.6875C10.1706 11.6875 10.2378 11.7064 10.2795 11.722L9.57722 13.5947ZM10.08 13.6875C10.4649 13.6875 10.8292 13.5333 11.0963 13.2663L9.68207 11.8521C9.7858 11.7483 9.92845 11.6875 10.08 11.6875V13.6875ZM11.0963 13.2663L13.2663 11.0963L11.8521 9.68206L9.68207 11.8521L11.0963 13.2663ZM13.2782 11.0842C13.8155 10.5283 13.8325 9.6299 13.2663 9.06373L11.8521 10.4779C11.6242 10.2501 11.6412 9.90004 11.8402 9.69414L13.2782 11.0842Z" fill="#065F46" mask="url(#path-2-inside-1_553_5057)"/>
</g>
</g>
</g>
</svg>
