<svg width="25" height="24" viewBox="0 0 25 24" fill="none" xmlns="http://www.w3.org/2000/svg">
<g id="vuesax/linear/briefcase">
<g id="briefcase">
<path id="Vector" d="M8.50001 22H16.5C20.52 22 21.24 20.39 21.45 18.43L22.2 10.43C22.47 7.99 21.77 6 17.5 6H7.50001C3.23001 6 2.53001 7.99 2.80001 10.43L3.55001 18.43C3.76001 20.39 4.48001 22 8.50001 22Z" stroke="#A21CAF" stroke-width="1.5" stroke-miterlimit="10" stroke-linecap="round" stroke-linejoin="round"/>
<path id="Vector_2" d="M8.5 6V5.2C8.5 3.43 8.5 2 11.7 2H13.3C16.5 2 16.5 3.43 16.5 5.2V6" stroke="#A21CAF" stroke-width="1.5" stroke-miterlimit="10" stroke-linecap="round" stroke-linejoin="round"/>
<path id="Vector_3" d="M14.5 13V14C14.5 14.01 14.5 14.01 14.5 14.02C14.5 15.11 14.49 16 12.5 16C10.52 16 10.5 15.12 10.5 14.03V13C10.5 12 10.5 12 11.5 12H13.5C14.5 12 14.5 12 14.5 13Z" stroke="#A21CAF" stroke-width="1.5" stroke-miterlimit="10" stroke-linecap="round" stroke-linejoin="round"/>
<path id="Vector_4" d="M22.15 11C19.84 12.68 17.2 13.68 14.5 14.02" stroke="#A21CAF" stroke-width="1.5" stroke-miterlimit="10" stroke-linecap="round" stroke-linejoin="round"/>
<path id="Vector_5" d="M3.12 11.27C5.37 12.81 7.91 13.74 10.5 14.03" stroke="#A21CAF" stroke-width="1.5" stroke-miterlimit="10" stroke-linecap="round" stroke-linejoin="round"/>
</g>
</g>
</svg>
