<svg width="14" height="14" viewBox="0 0 14 14" fill="none" xmlns="http://www.w3.org/2000/svg">
<g id="vuesax/linear/calendar">
<g id="calendar">
<path id="Vector" d="M4.66669 1.16699V2.91699" stroke="#065F46" stroke-width="1.5" stroke-miterlimit="10" stroke-linecap="round" stroke-linejoin="round"/>
<path id="Vector_2" d="M9.33331 1.16699V2.91699" stroke="#065F46" stroke-width="1.5" stroke-miterlimit="10" stroke-linecap="round" stroke-linejoin="round"/>
<path id="Vector_3" d="M9.33333 2.04199C11.2758 2.14699 12.25 2.88783 12.25 5.62949V9.23449C12.25 11.6378 11.6667 12.8395 8.75 12.8395H5.25C2.33333 12.8395 1.75 11.6378 1.75 9.23449V5.62949C1.75 2.88783 2.72417 2.15283 4.66667 2.04199H9.33333Z" stroke="#065F46" stroke-width="1.5" stroke-miterlimit="10" stroke-linecap="round" stroke-linejoin="round"/>
<path id="Vector_4" d="M12.1041 10.2666H1.89581" stroke="#065F46" stroke-width="1.5" stroke-miterlimit="10" stroke-linecap="round" stroke-linejoin="round"/>
<path id="Vector_5" d="M7.00002 4.8125C6.28252 4.8125 5.67585 5.20333 5.67585 5.96167C5.67585 6.32333 5.84502 6.5975 6.10169 6.7725C5.74585 6.9825 5.54169 7.32083 5.54169 7.7175C5.54169 8.44083 6.09585 8.89 7.00002 8.89C7.89835 8.89 8.45835 8.44083 8.45835 7.7175C8.45835 7.32083 8.25419 6.97667 7.89252 6.7725C8.15502 6.59167 8.31835 6.32333 8.31835 5.96167C8.31835 5.20333 7.71752 4.8125 7.00002 4.8125ZM7.00002 6.46917C6.69669 6.46917 6.47502 6.28833 6.47502 6.0025C6.47502 5.71083 6.69669 5.54167 7.00002 5.54167C7.30335 5.54167 7.52502 5.71083 7.52502 6.0025C7.52502 6.28833 7.30335 6.46917 7.00002 6.46917ZM7.00002 8.16667C6.61502 8.16667 6.33502 7.97417 6.33502 7.62417C6.33502 7.27417 6.61502 7.0875 7.00002 7.0875C7.38502 7.0875 7.66502 7.28 7.66502 7.62417C7.66502 7.97417 7.38502 8.16667 7.00002 8.16667Z" fill="#065F46"/>
</g>
</g>
</svg>
