<svg width="14" height="14" viewBox="0 0 14 14" fill="none" xmlns="http://www.w3.org/2000/svg">
<g id="chevron-left">
<path id="Vector" fill-rule="evenodd" clip-rule="evenodd" d="M9.93474 1.44025C9.97548 1.48089 10.0078 1.52917 10.0299 1.58232C10.0519 1.63548 10.0633 1.69246 10.0633 1.75C10.0633 1.80755 10.0519 1.86453 10.0299 1.91768C10.0078 1.97084 9.97548 2.01911 9.93474 2.05975L4.99361 7L9.93474 11.9403C10.0169 12.0224 10.063 12.1338 10.063 12.25C10.063 12.3662 10.0169 12.4776 9.93474 12.5598C9.85259 12.6419 9.74117 12.6881 9.62499 12.6881C9.50881 12.6881 9.39739 12.6419 9.31524 12.5598L4.06524 7.30975C4.0245 7.26911 3.99217 7.22083 3.97011 7.16768C3.94806 7.11453 3.93671 7.05755 3.93671 7C3.93671 6.94246 3.94806 6.88548 3.97011 6.83232C3.99217 6.77917 4.0245 6.73089 4.06524 6.69025L9.31524 1.44025C9.35588 1.39951 9.40416 1.36719 9.45731 1.34513C9.51046 1.32307 9.56744 1.31172 9.62499 1.31172C9.68254 1.31172 9.73952 1.32307 9.79267 1.34513C9.84582 1.36719 9.8941 1.39951 9.93474 1.44025Z" fill="#6B7280"/>
</g>
</svg>
