<svg width="24" height="25" viewBox="0 0 24 25" fill="none" xmlns="http://www.w3.org/2000/svg">
<g id="chevron-left">
<path id="Vector" fill-rule="evenodd" clip-rule="evenodd" d="M17.031 2.96888C17.1008 3.03854 17.1563 3.12131 17.1941 3.21243C17.2319 3.30354 17.2513 3.40122 17.2513 3.49988C17.2513 3.59853 17.2319 3.69621 17.1941 3.78733C17.1563 3.87844 17.1008 3.96121 17.031 4.03088L8.5605 12.4999L17.031 20.9689C17.1718 21.1097 17.2509 21.3007 17.2509 21.4999C17.2509 21.699 17.1718 21.89 17.031 22.0309C16.8902 22.1717 16.6992 22.2508 16.5 22.2508C16.3008 22.2508 16.1098 22.1717 15.969 22.0309L6.969 13.0309C6.89915 12.9612 6.84374 12.8784 6.80593 12.7873C6.76812 12.6962 6.74866 12.5985 6.74866 12.4999C6.74866 12.4012 6.76812 12.3035 6.80593 12.2124C6.84374 12.1213 6.89915 12.0385 6.969 11.9689L15.969 2.96888C16.0387 2.89903 16.1214 2.84362 16.2125 2.80581C16.3037 2.768 16.4013 2.74854 16.5 2.74854C16.5986 2.74854 16.6963 2.768 16.7874 2.80581C16.8786 2.84362 16.9613 2.89903 17.031 2.96888Z" fill="#1F2937"/>
</g>
</svg>
