<svg width="15" height="14" viewBox="0 0 15 14" fill="none" xmlns="http://www.w3.org/2000/svg">
<g id="chevron-right">
<path id="Vector" fill-rule="evenodd" clip-rule="evenodd" d="M4.56506 1.44006C4.6057 1.39931 4.65397 1.36699 4.70713 1.34493C4.76028 1.32288 4.81726 1.31152 4.87481 1.31152C4.93235 1.31152 4.98933 1.32288 5.04248 1.34493C5.09564 1.36699 5.14392 1.39931 5.18456 1.44006L10.4346 6.69006C10.4753 6.7307 10.5076 6.77897 10.5297 6.83213C10.5517 6.88528 10.5631 6.94226 10.5631 6.99981C10.5631 7.05735 10.5517 7.11433 10.5297 7.16748C10.5076 7.22064 10.4753 7.26892 10.4346 7.30956L5.18456 12.5596C5.1024 12.6417 4.99098 12.6879 4.87481 12.6879C4.75863 12.6879 4.64721 12.6417 4.56506 12.5596C4.4829 12.4774 4.43675 12.366 4.43675 12.2498C4.43675 12.1336 4.4829 12.0222 4.56506 11.9401L9.50618 6.99981L4.56506 2.05956C4.52431 2.01892 4.49199 1.97064 4.46993 1.91748C4.44788 1.86433 4.43652 1.80735 4.43652 1.74981C4.43652 1.69226 4.44788 1.63528 4.46993 1.58213C4.49199 1.52897 4.52431 1.4807 4.56506 1.44006Z" fill="#9CA3AF"/>
</g>
</svg>
