<svg width="16" height="16" viewBox="0 0 16 16" fill="none" xmlns="http://www.w3.org/2000/svg">
<g id="chevron-down">
<path id="Vector" fill-rule="evenodd" clip-rule="evenodd" d="M1.64598 4.64592C1.69242 4.59935 1.7476 4.56241 1.80834 4.5372C1.86909 4.512 1.93421 4.49902 1.99998 4.49902C2.06575 4.49902 2.13087 4.512 2.19161 4.5372C2.25236 4.56241 2.30753 4.59935 2.35398 4.64592L7.99998 10.2929L13.646 4.64592C13.6925 4.59943 13.7477 4.56255 13.8084 4.53739C13.8691 4.51223 13.9342 4.49929 14 4.49929C14.0657 4.49929 14.1308 4.51223 14.1916 4.53739C14.2523 4.56255 14.3075 4.59943 14.354 4.64592C14.4005 4.6924 14.4373 4.74759 14.4625 4.80833C14.4877 4.86907 14.5006 4.93417 14.5006 4.99992C14.5006 5.06566 14.4877 5.13076 14.4625 5.1915C14.4373 5.25224 14.4005 5.30743 14.354 5.35392L8.35398 11.3539C8.30753 11.4005 8.25236 11.4374 8.19161 11.4626C8.13087 11.4878 8.06575 11.5008 7.99998 11.5008C7.93421 11.5008 7.86909 11.4878 7.80834 11.4626C7.7476 11.4374 7.69242 11.4005 7.64598 11.3539L1.64598 5.35392C1.59942 5.30747 1.56247 5.2523 1.53727 5.19155C1.51206 5.13081 1.49908 5.06568 1.49908 4.99992C1.49908 4.93415 1.51206 4.86903 1.53727 4.80828C1.56247 4.74754 1.59942 4.69236 1.64598 4.64592Z" fill="#6B7280"/>
</g>
</svg>
