<svg width="24" height="25" viewBox="0 0 24 25" fill="none" xmlns="http://www.w3.org/2000/svg">
<g id="more_vert">
<path id="icon" d="M12 20.5C11.45 20.5 10.9792 20.3042 10.5875 19.9125C10.1958 19.5208 10 19.05 10 18.5C10 17.95 10.1958 17.4792 10.5875 17.0875C10.9792 16.6958 11.45 16.5 12 16.5C12.55 16.5 13.0208 16.6958 13.4125 17.0875C13.8042 17.4792 14 17.95 14 18.5C14 19.05 13.8042 19.5208 13.4125 19.9125C13.0208 20.3042 12.55 20.5 12 20.5ZM12 14.5C11.45 14.5 10.9792 14.3042 10.5875 13.9125C10.1958 13.5208 10 13.05 10 12.5C10 11.95 10.1958 11.4792 10.5875 11.0875C10.9792 10.6958 11.45 10.5 12 10.5C12.55 10.5 13.0208 10.6958 13.4125 11.0875C13.8042 11.4792 14 11.95 14 12.5C14 13.05 13.8042 13.5208 13.4125 13.9125C13.0208 14.3042 12.55 14.5 12 14.5ZM12 8.5C11.45 8.5 10.9792 8.30417 10.5875 7.9125C10.1958 7.52083 10 7.05 10 6.5C10 5.95 10.1958 5.47917 10.5875 5.0875C10.9792 4.69583 11.45 4.5 12 4.5C12.55 4.5 13.0208 4.69583 13.4125 5.0875C13.8042 5.47917 14 5.95 14 6.5C14 7.05 13.8042 7.52083 13.4125 7.9125C13.0208 8.30417 12.55 8.5 12 8.5Z" fill="#1D1B20"/>
</g>
</svg>
