<svg width="99" height="98" viewBox="0 0 99 98" fill="none" xmlns="http://www.w3.org/2000/svg">
<g id="exclamation-triangle" clip-path="url(#clip0_156_13831)">
<path id="Vector" d="M49.1201 12.3479C49.2402 12.2821 49.3752 12.2483 49.5121 12.2499C49.647 12.2494 49.7798 12.2831 49.898 12.3479C50.0381 12.4319 50.1525 12.5526 50.2288 12.697L92.2279 84.1574C92.4484 84.5249 92.4423 84.9169 92.2401 85.2783C92.1624 85.4266 92.0487 85.5529 91.9094 85.6458C91.7881 85.7202 91.6473 85.7564 91.5051 85.7499H7.51913C7.37696 85.7568 7.23602 85.7205 7.11488 85.6458C6.97556 85.5529 6.86183 85.4266 6.78413 85.2783C6.6832 85.1083 6.63095 84.9138 6.63311 84.7161C6.63527 84.5184 6.69176 84.3251 6.79638 84.1574L48.7894 12.697C48.8659 12.5528 48.9803 12.4321 49.1201 12.3479ZM55.5146 9.59164C54.9083 8.53547 54.0341 7.65797 52.9801 7.04776C51.9262 6.43754 50.73 6.11621 49.5121 6.11621C48.2943 6.11621 47.098 6.43754 46.0441 7.04776C44.9902 7.65797 44.1159 8.53547 43.5096 9.59164L1.51051 81.052C-1.28862 85.8173 2.06788 91.8749 7.51301 91.8749H91.5051C96.9503 91.8749 100.313 85.8111 97.5076 81.052L55.5146 9.59164Z" fill="#DC2626"/>
<path id="Vector_2" d="M43.3872 73.5004C43.3872 72.696 43.5456 71.8995 43.8534 71.1564C44.1613 70.4133 44.6124 69.7381 45.1812 69.1693C45.7499 68.6006 46.4252 68.1494 47.1683 67.8416C47.9114 67.5338 48.7079 67.3754 49.5122 67.3754C50.3166 67.3754 51.113 67.5338 51.8561 67.8416C52.5993 68.1494 53.2745 68.6006 53.8432 69.1693C54.412 69.7381 54.8632 70.4133 55.171 71.1564C55.4788 71.8995 55.6372 72.696 55.6372 73.5004C55.6372 75.1248 54.9919 76.6827 53.8432 77.8314C52.6946 78.98 51.1367 79.6254 49.5122 79.6254C47.8878 79.6254 46.3298 78.98 45.1812 77.8314C44.0325 76.6827 43.3872 75.1248 43.3872 73.5004ZM43.9875 36.7197C43.9059 35.947 43.9877 35.1658 44.2276 34.4267C44.4674 33.6876 44.86 33.0073 45.3798 32.4297C45.8996 31.8521 46.535 31.3903 47.2448 31.0742C47.9546 30.7581 48.7229 30.5947 49.5 30.5947C50.277 30.5947 51.0453 30.7581 51.7551 31.0742C52.4649 31.3903 53.1003 31.8521 53.6201 32.4297C54.1399 33.0073 54.5325 33.6876 54.7724 34.4267C55.0122 35.1658 55.094 35.947 55.0125 36.7197L52.8687 58.2001C52.7967 59.044 52.4106 59.83 51.7868 60.4029C51.163 60.9757 50.3469 61.2936 49.5 61.2936C48.653 61.2936 47.837 60.9757 47.2132 60.4029C46.5893 59.83 46.2032 59.044 46.1312 58.2001L43.9875 36.7197Z" fill="#DC2626"/>
</g>
<defs>
<clipPath id="clip0_156_13831">
<rect width="98" height="98" fill="white" transform="translate(0.5)"/>
</clipPath>
</defs>
</svg>
