<svg width="20" height="20" viewBox="0 0 20 20" fill="none" xmlns="http://www.w3.org/2000/svg">
<g id="hand-thumbs-up-fill">
<path id="Vector" d="M8.695 2.18081C8.77625 1.01206 9.885 0.108312 11.08 0.405812L11.4062 0.488312C11.985 0.633312 12.4987 1.05831 12.6713 1.69456C12.9462 2.71456 13.3375 4.83331 12.7488 7.33206C12.9328 7.30663 13.1175 7.28538 13.3025 7.26831C14.1938 7.18706 15.3888 7.17831 16.4475 7.53081C17.095 7.74706 17.69 8.38206 17.9475 9.12206C18.1775 9.78706 18.1475 10.5746 17.655 11.2883C17.7275 11.4371 17.7838 11.5908 17.8275 11.7421C17.9237 12.0796 17.9688 12.4508 17.9688 12.8121C17.9688 13.1733 17.9237 13.5446 17.8275 13.8821C17.7788 14.0508 17.715 14.2233 17.6275 14.3871C17.8387 14.8708 17.7612 15.4108 17.6237 15.8221C17.483 16.2281 17.2769 16.6085 17.0138 16.9483C17.0813 17.1383 17.1088 17.3383 17.1088 17.5296C17.1088 17.9108 16.9975 18.3108 16.7925 18.6696C16.375 19.4021 15.5463 19.9996 14.375 19.9996H10C9.24375 19.9996 8.6625 19.8983 8.1675 19.7271C7.74187 19.5716 7.33513 19.3687 6.955 19.1221L6.895 19.0846C6.265 18.7008 5.64625 18.3233 4.31 18.1821C3.3525 18.0796 2.5 17.3071 2.5 16.2496V11.2496C2.5 10.1871 3.35625 9.45956 4.19625 9.23081C5.2575 8.94081 6.16375 8.24706 6.86125 7.46831C7.56125 6.68456 8.00375 5.86831 8.16 5.41956C8.40875 4.70081 8.605 3.49581 8.695 2.18206V2.18081Z" fill="#16A34A"/>
</g>
</svg>
