<svg width="16" height="16" viewBox="0 0 16 16" fill="none" xmlns="http://www.w3.org/2000/svg">
<g id="search" clip-path="url(#clip0_366_2647)">
<path id="Vector" d="M11.742 10.3441C12.7103 9.02279 13.144 7.38459 12.9563 5.75725C12.7686 4.12991 11.9734 2.63344 10.7297 1.56723C9.4861 0.501022 7.88573 -0.0562959 6.24882 0.00677721C4.61191 0.0698504 3.05917 0.748663 1.90125 1.90741C0.743334 3.06615 0.0656328 4.61938 0.00373101 6.25633C-0.0581708 7.89329 0.500292 9.49326 1.56739 10.7361C2.63449 11.979 4.13153 12.7732 5.759 12.9597C7.38648 13.1462 9.02436 12.7113 10.345 11.7421H10.344C10.374 11.7821 10.406 11.8201 10.442 11.8571L14.292 15.7071C14.4795 15.8947 14.7339 16.0002 14.9991 16.0003C15.2644 16.0004 15.5188 15.8951 15.7065 15.7076C15.8941 15.5201 15.9996 15.2657 15.9997 15.0005C15.9998 14.7352 15.8945 14.4807 15.707 14.2931L11.857 10.4431C11.8212 10.4069 11.7828 10.3735 11.742 10.3431V10.3441ZM12 6.5001C12 7.22237 11.8577 7.93757 11.5813 8.60486C11.3049 9.27215 10.8998 9.87847 10.3891 10.3892C9.87835 10.8999 9.27203 11.305 8.60474 11.5814C7.93745 11.8578 7.22225 12.0001 6.49998 12.0001C5.77771 12.0001 5.06251 11.8578 4.39522 11.5814C3.72793 11.305 3.12162 10.8999 2.61089 10.3892C2.10017 9.87847 1.69505 9.27215 1.41864 8.60486C1.14224 7.93757 0.999982 7.22237 0.999982 6.5001C0.999982 5.04141 1.57945 3.64246 2.6109 2.61101C3.64235 1.57956 5.04129 1.0001 6.49998 1.0001C7.95867 1.0001 9.35762 1.57956 10.3891 2.61101C11.4205 3.64246 12 5.04141 12 6.5001Z" fill="#6B7280"/>
</g>
<defs>
<clipPath id="clip0_366_2647">
<rect width="16" height="16" fill="white"/>
</clipPath>
</defs>
</svg>
