<svg width="16" height="17" viewBox="0 0 16 17" fill="none" xmlns="http://www.w3.org/2000/svg">
<g id="vuesax/bold/tick-circle">
<g id="tick-circle">
<path id="Vector" d="M7.99992 1.8335C4.32659 1.8335 1.33325 4.82683 1.33325 8.50016C1.33325 12.1735 4.32659 15.1668 7.99992 15.1668C11.6733 15.1668 14.6666 12.1735 14.6666 8.50016C14.6666 4.82683 11.6733 1.8335 7.99992 1.8335ZM11.1866 6.96683L7.40659 10.7468C7.31325 10.8402 7.18659 10.8935 7.05325 10.8935C6.91992 10.8935 6.79325 10.8402 6.69992 10.7468L4.81325 8.86016C4.61992 8.66683 4.61992 8.34683 4.81325 8.1535C5.00659 7.96016 5.32659 7.96016 5.51992 8.1535L7.05325 9.68683L10.4799 6.26016C10.6733 6.06683 10.9933 6.06683 11.1866 6.26016C11.3799 6.4535 11.3799 6.76683 11.1866 6.96683Z" fill="#065F46"/>
</g>
</g>
</svg>
