<svg width="14" height="14" viewBox="0 0 14 14" fill="none" xmlns="http://www.w3.org/2000/svg">
<g id="x-lg">
<g id="Vector">
<mask id="path-1-inside-1_887_5985" fill="white">
<path fill-rule="evenodd" clip-rule="evenodd" d="M12.1223 1.87756C12.1631 1.9182 12.1954 1.96647 12.2174 2.01963C12.2395 2.07278 12.2508 2.12976 12.2508 2.18731C12.2508 2.24485 12.2395 2.30183 12.2174 2.35498C12.1954 2.40814 12.1631 2.45642 12.1223 2.49706L2.49731 12.1221C2.41516 12.2042 2.30374 12.2504 2.18756 12.2504C2.07139 12.2504 1.95997 12.2042 1.87781 12.1221C1.79566 12.0399 1.74951 11.9285 1.74951 11.8123C1.74951 11.6961 1.79566 11.5847 1.87781 11.5026L11.5028 1.87756C11.5435 1.83681 11.5917 1.80449 11.6449 1.78243C11.698 1.76038 11.755 1.74902 11.8126 1.74902C11.8701 1.74902 11.9271 1.76038 11.9802 1.78243C12.0334 1.80449 12.0817 1.83681 12.1223 1.87756Z"/>
</mask>
<path fill-rule="evenodd" clip-rule="evenodd" d="M12.1223 1.87756C12.1631 1.9182 12.1954 1.96647 12.2174 2.01963C12.2395 2.07278 12.2508 2.12976 12.2508 2.18731C12.2508 2.24485 12.2395 2.30183 12.2174 2.35498C12.1954 2.40814 12.1631 2.45642 12.1223 2.49706L2.49731 12.1221C2.41516 12.2042 2.30374 12.2504 2.18756 12.2504C2.07139 12.2504 1.95997 12.2042 1.87781 12.1221C1.79566 12.0399 1.74951 11.9285 1.74951 11.8123C1.74951 11.6961 1.79566 11.5847 1.87781 11.5026L11.5028 1.87756C11.5435 1.83681 11.5917 1.80449 11.6449 1.78243C11.698 1.76038 11.755 1.74902 11.8126 1.74902C11.8701 1.74902 11.9271 1.76038 11.9802 1.78243C12.0334 1.80449 12.0817 1.83681 12.1223 1.87756Z" fill="#6B7280"/>
<path d="M12.1223 2.49706L11.4161 1.78906L11.4152 1.78995L12.1223 2.49706ZM1.74951 11.8123H0.749512H1.74951ZM11.5028 1.87756L12.2099 2.58466L12.2108 2.58377L11.5028 1.87756ZM11.8126 1.74902V2.74902V1.74902ZM11.4161 2.58556C11.3637 2.5333 11.3222 2.47123 11.2938 2.40289L13.1411 1.63636C13.0686 1.46172 12.9624 1.30309 12.8285 1.16956L11.4161 2.58556ZM11.2938 2.40289C11.2654 2.33456 11.2508 2.26129 11.2508 2.18731H13.2508C13.2508 1.99822 13.2135 1.811 13.1411 1.63636L11.2938 2.40289ZM11.2508 2.18731C11.2508 2.11332 11.2654 2.04006 11.2938 1.97172L13.1411 2.73825C13.2135 2.56361 13.2508 2.37639 13.2508 2.18731H11.2508ZM11.2938 1.97172C11.3222 1.90338 11.3637 1.84131 11.4161 1.78906L12.8285 3.20506C12.9624 3.07152 13.0686 2.91289 13.1411 2.73825L11.2938 1.97172ZM11.4152 1.78995L1.79021 11.4149L3.20442 12.8292L12.8294 3.20416L11.4152 1.78995ZM1.79021 11.4149C1.89559 11.3096 2.03853 11.2504 2.18756 11.2504V13.2504C2.56896 13.2504 2.93473 13.0989 3.20442 12.8292L1.79021 11.4149ZM2.18756 11.2504C2.3366 11.2504 2.47953 11.3096 2.58492 11.4149L1.17071 12.8292C1.4404 13.0989 1.80617 13.2504 2.18756 13.2504V11.2504ZM2.58492 11.4149C2.69031 11.5203 2.74951 11.6633 2.74951 11.8123H0.749512C0.749512 12.1937 0.90102 12.5595 1.17071 12.8292L2.58492 11.4149ZM2.74951 11.8123C2.74951 11.9613 2.69031 12.1043 2.58492 12.2097L1.17071 10.7954C0.90102 11.0651 0.749512 11.4309 0.749512 11.8123H2.74951ZM2.58492 12.2097L12.2099 2.58466L10.7957 1.17045L1.17071 10.7954L2.58492 12.2097ZM12.2108 2.58377C12.1586 2.63615 12.0965 2.67771 12.0282 2.70607L11.2616 0.858795C11.087 0.931262 10.9283 1.03747 10.7948 1.17134L12.2108 2.58377ZM12.0282 2.70607C11.9598 2.73443 11.8866 2.74902 11.8126 2.74902V0.749023C11.6235 0.749023 11.4363 0.786327 11.2616 0.858795L12.0282 2.70607ZM11.8126 2.74902C11.7386 2.74902 11.6653 2.73443 11.597 2.70607L12.3635 0.858795C12.1889 0.786327 12.0016 0.749023 11.8126 0.749023V2.74902ZM11.597 2.70607C11.5286 2.67771 11.4666 2.63615 11.4143 2.58377L12.8303 1.17134C12.6968 1.03747 12.5381 0.931262 12.3635 0.858795L11.597 2.70607Z" fill="#6B7280" mask="url(#path-1-inside-1_887_5985)"/>
</g>
<path id="Vector_2" fill-rule="evenodd" clip-rule="evenodd" d="M1.87756 1.87756C1.83681 1.9182 1.80449 1.96647 1.78243 2.01963C1.76038 2.07278 1.74902 2.12976 1.74902 2.18731C1.74902 2.24485 1.76038 2.30183 1.78243 2.35498C1.80449 2.40814 1.83681 2.45642 1.87756 2.49706L11.5026 12.1221C11.5847 12.2042 11.6961 12.2504 11.8123 12.2504C11.9285 12.2504 12.0399 12.2042 12.1221 12.1221C12.2042 12.0399 12.2504 11.9285 12.2504 11.8123C12.2504 11.6961 12.2042 11.5847 12.1221 11.5026L2.49706 1.87756C2.45642 1.83681 2.40814 1.80449 2.35498 1.78243C2.30183 1.76038 2.24485 1.74902 2.18731 1.74902C2.12976 1.74902 2.07278 1.76038 2.01963 1.78243C1.96647 1.80449 1.9182 1.83681 1.87756 1.87756Z" fill="#6B7280"/>
</g>
</svg>
