<svg width="16" height="17" viewBox="0 0 16 17" fill="none" xmlns="http://www.w3.org/2000/svg">
<g id="x">
<path id="Vector" d="M4.64592 5.14592C4.69236 5.09935 4.74754 5.06241 4.80828 5.0372C4.86903 5.012 4.93415 4.99902 4.99992 4.99902C5.06568 4.99902 5.13081 5.012 5.19155 5.0372C5.2523 5.06241 5.30747 5.09935 5.35392 5.14592L7.99992 7.79292L10.6459 5.14592C10.6924 5.09943 10.7476 5.06255 10.8083 5.03739C10.8691 5.01223 10.9342 4.99929 10.9999 4.99929C11.0657 4.99929 11.1308 5.01223 11.1915 5.03739C11.2522 5.06255 11.3074 5.09943 11.3539 5.14592C11.4004 5.1924 11.4373 5.24759 11.4624 5.30833C11.4876 5.36907 11.5005 5.43417 11.5005 5.49992C11.5005 5.56566 11.4876 5.63076 11.4624 5.6915C11.4373 5.75224 11.4004 5.80743 11.3539 5.85392L8.70692 8.49992L11.3539 11.1459C11.4004 11.1924 11.4373 11.2476 11.4624 11.3083C11.4876 11.3691 11.5005 11.4342 11.5005 11.4999C11.5005 11.5657 11.4876 11.6308 11.4624 11.6915C11.4373 11.7522 11.4004 11.8074 11.3539 11.8539C11.3074 11.9004 11.2522 11.9373 11.1915 11.9624C11.1308 11.9876 11.0657 12.0005 10.9999 12.0005C10.9342 12.0005 10.8691 11.9876 10.8083 11.9624C10.7476 11.9373 10.6924 11.9004 10.6459 11.8539L7.99992 9.20692L5.35392 11.8539C5.30743 11.9004 5.25224 11.9373 5.1915 11.9624C5.13076 11.9876 5.06566 12.0005 4.99992 12.0005C4.93417 12.0005 4.86907 11.9876 4.80833 11.9624C4.74759 11.9373 4.6924 11.9004 4.64592 11.8539C4.59943 11.8074 4.56255 11.7522 4.53739 11.6915C4.51223 11.6308 4.49929 11.5657 4.49929 11.4999C4.49929 11.4342 4.51223 11.3691 4.53739 11.3083C4.56255 11.2476 4.59943 11.1924 4.64592 11.1459L7.29292 8.49992L4.64592 5.85392C4.59935 5.80747 4.56241 5.7523 4.5372 5.69155C4.512 5.63081 4.49902 5.56568 4.49902 5.49992C4.49902 5.43415 4.512 5.36903 4.5372 5.30828C4.56241 5.24754 4.59935 5.19236 4.64592 5.14592Z" fill="#6B7280"/>
</g>
</svg>
